<svg xmlns="http://www.w3.org/2000/svg" width="33" height="34"><path fill-rule="evenodd" fill="#86C840" d="M16.472.058c9.103 0 16.482 7.379 16.482 16.482s-7.379 16.482-16.482 16.482C7.37 33.022-.01 25.643-.01 16.54S7.37.058 16.472.058z"/><path fill-rule="evenodd" fill="#F6E73B" d="M16.416 4.711c6.532 0 11.827 5.295 11.827 11.827 0 6.531-5.295 11.826-11.827 11.826-6.531 0-11.826-5.295-11.826-11.826 0-6.532 5.295-11.827 11.826-11.827z"/><path fill-rule="evenodd" opacity=".18" d="M17 0v33s16.317-3.775 16-16C32.683 4.775 23.212 1.334 17 0z"/></svg>